<mxfile host="www.draw.io" modified="2019-12-04T09:50:20.133Z" agent="Mozilla/5.0 (Windows NT 10.0; Win64; x64) AppleWebKit/537.36 (KHTML, like Gecko) Chrome/78.0.3904.108 Safari/537.36" etag="T59ihf267B9Is1RKms6D" version="12.3.6" type="github" pages="1">
  <diagram id="i9n3jKkfWh6_e4fHpcgL" name="Page-1">
    <mxGraphModel dx="908" dy="360" grid="1" gridSize="10" guides="1" tooltips="1" connect="1" arrows="1" fold="1" page="1" pageScale="1" pageWidth="850" pageHeight="1100" math="0" shadow="0">
      <root>
        <mxCell id="0"/>
        <mxCell id="1" parent="0"/>
        <mxCell id="UPinhEmfIHB1rPUh6o73-51" style="edgeStyle=orthogonalEdgeStyle;rounded=0;orthogonalLoop=1;jettySize=auto;html=1;entryX=0;entryY=0.5;entryDx=0;entryDy=0;dashed=1;" parent="1" source="UPinhEmfIHB1rPUh6o73-1" target="UPinhEmfIHB1rPUh6o73-49" edge="1">
          <mxGeometry relative="1" as="geometry">
            <Array as="points">
              <mxPoint x="155" y="1600"/>
              <mxPoint x="155" y="1710"/>
            </Array>
          </mxGeometry>
        </mxCell>
        <mxCell id="OObZ29ksGVGSvnAa_7Tn-3" style="edgeStyle=orthogonalEdgeStyle;rounded=0;jumpStyle=arc;orthogonalLoop=1;jettySize=auto;html=1;" edge="1" parent="1" source="UPinhEmfIHB1rPUh6o73-1" target="UPinhEmfIHB1rPUh6o73-5">
          <mxGeometry relative="1" as="geometry"/>
        </mxCell>
        <mxCell id="UPinhEmfIHB1rPUh6o73-1" value="User&lt;br&gt;MobileApp" style="rounded=1;whiteSpace=wrap;html=1;" parent="1" vertex="1">
          <mxGeometry y="1570" width="110" height="40" as="geometry"/>
        </mxCell>
        <mxCell id="UPinhEmfIHB1rPUh6o73-52" style="edgeStyle=orthogonalEdgeStyle;rounded=0;orthogonalLoop=1;jettySize=auto;html=1;entryX=0;entryY=0.5;entryDx=0;entryDy=0;dashed=1;" parent="1" source="UPinhEmfIHB1rPUh6o73-2" target="UPinhEmfIHB1rPUh6o73-49" edge="1">
          <mxGeometry relative="1" as="geometry">
            <Array as="points">
              <mxPoint x="155" y="1660"/>
              <mxPoint x="155" y="1710"/>
            </Array>
          </mxGeometry>
        </mxCell>
        <mxCell id="OObZ29ksGVGSvnAa_7Tn-5" style="edgeStyle=orthogonalEdgeStyle;rounded=0;jumpStyle=arc;orthogonalLoop=1;jettySize=auto;html=1;entryX=0;entryY=0.5;entryDx=0;entryDy=0;" edge="1" parent="1" source="UPinhEmfIHB1rPUh6o73-2" target="UPinhEmfIHB1rPUh6o73-5">
          <mxGeometry relative="1" as="geometry"/>
        </mxCell>
        <mxCell id="UPinhEmfIHB1rPUh6o73-2" value="LocalOfficer&lt;br&gt;WebApp" style="rounded=1;whiteSpace=wrap;html=1;" parent="1" vertex="1">
          <mxGeometry y="1630" width="110" height="40" as="geometry"/>
        </mxCell>
        <mxCell id="UPinhEmfIHB1rPUh6o73-53" style="edgeStyle=orthogonalEdgeStyle;rounded=0;orthogonalLoop=1;jettySize=auto;html=1;dashed=1;" parent="1" source="UPinhEmfIHB1rPUh6o73-3" target="UPinhEmfIHB1rPUh6o73-49" edge="1">
          <mxGeometry relative="1" as="geometry">
            <Array as="points">
              <mxPoint x="160" y="1710"/>
              <mxPoint x="160" y="1710"/>
            </Array>
          </mxGeometry>
        </mxCell>
        <mxCell id="OObZ29ksGVGSvnAa_7Tn-6" style="edgeStyle=orthogonalEdgeStyle;rounded=0;jumpStyle=arc;orthogonalLoop=1;jettySize=auto;html=1;entryX=0;entryY=0.5;entryDx=0;entryDy=0;" edge="1" parent="1" source="UPinhEmfIHB1rPUh6o73-3" target="UPinhEmfIHB1rPUh6o73-5">
          <mxGeometry relative="1" as="geometry"/>
        </mxCell>
        <mxCell id="UPinhEmfIHB1rPUh6o73-3" value="MunicipalEmployee&lt;br&gt;WebApp" style="rounded=1;whiteSpace=wrap;html=1;" parent="1" vertex="1">
          <mxGeometry y="1690" width="110" height="40" as="geometry"/>
        </mxCell>
        <mxCell id="UPinhEmfIHB1rPUh6o73-5" value="WebServer" style="rounded=1;whiteSpace=wrap;html=1;" parent="1" vertex="1">
          <mxGeometry x="175" y="1570" width="110" height="40" as="geometry"/>
        </mxCell>
        <mxCell id="UPinhEmfIHB1rPUh6o73-11" style="edgeStyle=orthogonalEdgeStyle;rounded=0;orthogonalLoop=1;jettySize=auto;html=1;" parent="1" source="UPinhEmfIHB1rPUh6o73-9" target="UPinhEmfIHB1rPUh6o73-10" edge="1">
          <mxGeometry relative="1" as="geometry"/>
        </mxCell>
        <mxCell id="UPinhEmfIHB1rPUh6o73-9" value="WebServer" style="rounded=1;whiteSpace=wrap;html=1;" parent="1" vertex="1">
          <mxGeometry y="1500" width="110" height="40" as="geometry"/>
        </mxCell>
        <mxCell id="UPinhEmfIHB1rPUh6o73-10" value="Router" style="rounded=1;whiteSpace=wrap;html=1;" parent="1" vertex="1">
          <mxGeometry x="175" y="1500" width="110" height="40" as="geometry"/>
        </mxCell>
        <mxCell id="UPinhEmfIHB1rPUh6o73-22" style="edgeStyle=orthogonalEdgeStyle;rounded=0;orthogonalLoop=1;jettySize=auto;html=1;entryX=0;entryY=0.5;entryDx=0;entryDy=0;" parent="1" source="UPinhEmfIHB1rPUh6o73-12" target="UPinhEmfIHB1rPUh6o73-13" edge="1">
          <mxGeometry relative="1" as="geometry"/>
        </mxCell>
        <mxCell id="UPinhEmfIHB1rPUh6o73-23" style="edgeStyle=orthogonalEdgeStyle;rounded=0;orthogonalLoop=1;jettySize=auto;html=1;entryX=0;entryY=0.5;entryDx=0;entryDy=0;" parent="1" source="UPinhEmfIHB1rPUh6o73-12" target="UPinhEmfIHB1rPUh6o73-14" edge="1">
          <mxGeometry relative="1" as="geometry"/>
        </mxCell>
        <mxCell id="UPinhEmfIHB1rPUh6o73-24" style="edgeStyle=orthogonalEdgeStyle;rounded=0;orthogonalLoop=1;jettySize=auto;html=1;entryX=0;entryY=0.5;entryDx=0;entryDy=0;" parent="1" source="UPinhEmfIHB1rPUh6o73-12" target="UPinhEmfIHB1rPUh6o73-15" edge="1">
          <mxGeometry relative="1" as="geometry"/>
        </mxCell>
        <mxCell id="UPinhEmfIHB1rPUh6o73-25" style="edgeStyle=orthogonalEdgeStyle;rounded=0;orthogonalLoop=1;jettySize=auto;html=1;entryX=0;entryY=0.5;entryDx=0;entryDy=0;" parent="1" source="UPinhEmfIHB1rPUh6o73-12" target="UPinhEmfIHB1rPUh6o73-16" edge="1">
          <mxGeometry relative="1" as="geometry"/>
        </mxCell>
        <mxCell id="UPinhEmfIHB1rPUh6o73-26" style="edgeStyle=orthogonalEdgeStyle;rounded=0;orthogonalLoop=1;jettySize=auto;html=1;entryX=0;entryY=0.5;entryDx=0;entryDy=0;" parent="1" source="UPinhEmfIHB1rPUh6o73-12" target="UPinhEmfIHB1rPUh6o73-17" edge="1">
          <mxGeometry relative="1" as="geometry"/>
        </mxCell>
        <mxCell id="UPinhEmfIHB1rPUh6o73-27" style="edgeStyle=orthogonalEdgeStyle;rounded=0;orthogonalLoop=1;jettySize=auto;html=1;entryX=0;entryY=0.5;entryDx=0;entryDy=0;" parent="1" source="UPinhEmfIHB1rPUh6o73-12" target="UPinhEmfIHB1rPUh6o73-18" edge="1">
          <mxGeometry relative="1" as="geometry"/>
        </mxCell>
        <mxCell id="UPinhEmfIHB1rPUh6o73-28" style="edgeStyle=orthogonalEdgeStyle;rounded=0;orthogonalLoop=1;jettySize=auto;html=1;entryX=0;entryY=0.5;entryDx=0;entryDy=0;" parent="1" source="UPinhEmfIHB1rPUh6o73-12" target="UPinhEmfIHB1rPUh6o73-19" edge="1">
          <mxGeometry relative="1" as="geometry"/>
        </mxCell>
        <mxCell id="UPinhEmfIHB1rPUh6o73-29" style="edgeStyle=orthogonalEdgeStyle;rounded=0;orthogonalLoop=1;jettySize=auto;html=1;entryX=0;entryY=0.5;entryDx=0;entryDy=0;" parent="1" source="UPinhEmfIHB1rPUh6o73-12" target="UPinhEmfIHB1rPUh6o73-20" edge="1">
          <mxGeometry relative="1" as="geometry"/>
        </mxCell>
        <mxCell id="UPinhEmfIHB1rPUh6o73-12" value="Router" style="rounded=1;whiteSpace=wrap;html=1;" parent="1" vertex="1">
          <mxGeometry y="1210" width="110" height="40" as="geometry"/>
        </mxCell>
        <mxCell id="UPinhEmfIHB1rPUh6o73-13" value="LoginManager" style="rounded=1;whiteSpace=wrap;html=1;" parent="1" vertex="1">
          <mxGeometry x="175" y="1000" width="110" height="40" as="geometry"/>
        </mxCell>
        <mxCell id="UPinhEmfIHB1rPUh6o73-14" value="SignUpManager" style="rounded=1;whiteSpace=wrap;html=1;" parent="1" vertex="1">
          <mxGeometry x="175" y="1060" width="110" height="40" as="geometry"/>
        </mxCell>
        <mxCell id="UPinhEmfIHB1rPUh6o73-15" value="ReportReceiver" style="rounded=1;whiteSpace=wrap;html=1;" parent="1" vertex="1">
          <mxGeometry x="175" y="1120" width="110" height="40" as="geometry"/>
        </mxCell>
        <mxCell id="UPinhEmfIHB1rPUh6o73-16" value="ReportValidator" style="rounded=1;whiteSpace=wrap;html=1;" parent="1" vertex="1">
          <mxGeometry x="175" y="1180" width="110" height="40" as="geometry"/>
        </mxCell>
        <mxCell id="UPinhEmfIHB1rPUh6o73-17" value="ReportMiner" style="rounded=1;whiteSpace=wrap;html=1;" parent="1" vertex="1">
          <mxGeometry x="175" y="1240" width="110" height="40" as="geometry"/>
        </mxCell>
        <mxCell id="UPinhEmfIHB1rPUh6o73-18" value="Improvements&lt;br&gt;Manager" style="rounded=1;whiteSpace=wrap;html=1;" parent="1" vertex="1">
          <mxGeometry x="175" y="1300" width="110" height="40" as="geometry"/>
        </mxCell>
        <mxCell id="UPinhEmfIHB1rPUh6o73-19" value="Statistics&lt;br&gt;Computation&lt;br&gt;Manager" style="rounded=1;whiteSpace=wrap;html=1;" parent="1" vertex="1">
          <mxGeometry x="175" y="1360" width="110" height="50" as="geometry"/>
        </mxCell>
        <mxCell id="UPinhEmfIHB1rPUh6o73-20" value="Statistics&lt;br&gt;Download&lt;br&gt;Manager" style="rounded=1;whiteSpace=wrap;html=1;" parent="1" vertex="1">
          <mxGeometry x="175" y="1420" width="110" height="50" as="geometry"/>
        </mxCell>
        <mxCell id="UPinhEmfIHB1rPUh6o73-33" value="Statistics&lt;br&gt;Computation&lt;br&gt;Manager" style="rounded=1;whiteSpace=wrap;html=1;" parent="1" vertex="1">
          <mxGeometry x="175" y="920" width="110" height="50" as="geometry"/>
        </mxCell>
        <mxCell id="UPinhEmfIHB1rPUh6o73-35" style="edgeStyle=orthogonalEdgeStyle;rounded=0;orthogonalLoop=1;jettySize=auto;html=1;" parent="1" source="UPinhEmfIHB1rPUh6o73-34" target="UPinhEmfIHB1rPUh6o73-33" edge="1">
          <mxGeometry relative="1" as="geometry"/>
        </mxCell>
        <mxCell id="UPinhEmfIHB1rPUh6o73-34" value="Statistics&lt;br&gt;Download&lt;br&gt;Manager" style="rounded=1;whiteSpace=wrap;html=1;" parent="1" vertex="1">
          <mxGeometry y="920" width="110" height="50" as="geometry"/>
        </mxCell>
        <mxCell id="UPinhEmfIHB1rPUh6o73-81" style="edgeStyle=orthogonalEdgeStyle;rounded=0;jumpStyle=arc;orthogonalLoop=1;jettySize=auto;html=1;entryX=0;entryY=0.5;entryDx=0;entryDy=0;" parent="1" source="UPinhEmfIHB1rPUh6o73-36" target="UPinhEmfIHB1rPUh6o73-40" edge="1">
          <mxGeometry relative="1" as="geometry"/>
        </mxCell>
        <mxCell id="UPinhEmfIHB1rPUh6o73-36" value="Statistics&lt;br&gt;Computation&lt;br&gt;Manager" style="rounded=1;whiteSpace=wrap;html=1;" parent="1" vertex="1">
          <mxGeometry y="770" width="110" height="50" as="geometry"/>
        </mxCell>
        <mxCell id="UPinhEmfIHB1rPUh6o73-80" style="edgeStyle=orthogonalEdgeStyle;rounded=0;jumpStyle=arc;orthogonalLoop=1;jettySize=auto;html=1;" parent="1" source="UPinhEmfIHB1rPUh6o73-37" target="UPinhEmfIHB1rPUh6o73-40" edge="1">
          <mxGeometry relative="1" as="geometry"/>
        </mxCell>
        <mxCell id="UPinhEmfIHB1rPUh6o73-37" value="Improvements&lt;br&gt;Manager" style="rounded=1;whiteSpace=wrap;html=1;" parent="1" vertex="1">
          <mxGeometry y="850" width="110" height="40" as="geometry"/>
        </mxCell>
        <mxCell id="UPinhEmfIHB1rPUh6o73-40" value="ReportMiner" style="rounded=1;whiteSpace=wrap;html=1;" parent="1" vertex="1">
          <mxGeometry x="175" y="810" width="110" height="40" as="geometry"/>
        </mxCell>
        <mxCell id="UPinhEmfIHB1rPUh6o73-43" value="MAS" style="rounded=1;whiteSpace=wrap;html=1;fillColor=#f8cecc;strokeColor=#b85450;" parent="1" vertex="1">
          <mxGeometry x="175" y="700" width="110" height="40" as="geometry"/>
        </mxCell>
        <mxCell id="UPinhEmfIHB1rPUh6o73-45" value="DBMS" style="rounded=1;whiteSpace=wrap;html=1;fillColor=#f8cecc;strokeColor=#b85450;" parent="1" vertex="1">
          <mxGeometry x="175" y="250" width="110" height="40" as="geometry"/>
        </mxCell>
        <mxCell id="UPinhEmfIHB1rPUh6o73-46" value="TS" style="rounded=1;whiteSpace=wrap;html=1;fillColor=#f8cecc;strokeColor=#b85450;" parent="1" vertex="1">
          <mxGeometry x="175" y="550" width="110" height="40" as="geometry"/>
        </mxCell>
        <mxCell id="UPinhEmfIHB1rPUh6o73-49" value="MS" style="rounded=1;whiteSpace=wrap;html=1;fillColor=#f8cecc;strokeColor=#b85450;" parent="1" vertex="1">
          <mxGeometry x="175" y="1690" width="110" height="40" as="geometry"/>
        </mxCell>
        <mxCell id="UPinhEmfIHB1rPUh6o73-54" value="&lt;span style=&quot;color: rgba(0 , 0 , 0 , 0) ; font-family: monospace ; font-size: 0px&quot;&gt;%3CmxGraphModel%3E%3Croot%3E%3CmxCell%20id%3D%220%22%2F%3E%3CmxCell%20id%3D%221%22%20parent%3D%220%22%2F%3E%3CmxCell%20id%3D%222%22%20value%3D%22ReportMiner%22%20style%3D%22rounded%3D1%3BwhiteSpace%3Dwrap%3Bhtml%3D1%3B%22%20vertex%3D%221%22%20parent%3D%221%22%3E%3CmxGeometry%20x%3D%22910%22%20y%3D%22520%22%20width%3D%22110%22%20height%3D%2240%22%20as%3D%22geometry%22%2F%3E%3C%2FmxCell%3E%3C%2Froot%3E%3C%2FmxGraphModel%3E&lt;/span&gt;" style="text;html=1;align=center;verticalAlign=middle;resizable=0;points=[];;autosize=1;" parent="1" vertex="1">
          <mxGeometry x="102" y="431" width="20" height="20" as="geometry"/>
        </mxCell>
        <mxCell id="UPinhEmfIHB1rPUh6o73-66" style="edgeStyle=orthogonalEdgeStyle;rounded=0;jumpStyle=arc;orthogonalLoop=1;jettySize=auto;html=1;entryX=0;entryY=0.5;entryDx=0;entryDy=0;dashed=1;" parent="1" source="UPinhEmfIHB1rPUh6o73-55" target="UPinhEmfIHB1rPUh6o73-45" edge="1">
          <mxGeometry relative="1" as="geometry"/>
        </mxCell>
        <mxCell id="UPinhEmfIHB1rPUh6o73-55" value="ReportMiner" style="rounded=1;whiteSpace=wrap;html=1;" parent="1" vertex="1">
          <mxGeometry y="370" width="110" height="40" as="geometry"/>
        </mxCell>
        <mxCell id="UPinhEmfIHB1rPUh6o73-61" style="edgeStyle=orthogonalEdgeStyle;rounded=0;jumpStyle=arc;orthogonalLoop=1;jettySize=auto;html=1;entryX=0;entryY=0.5;entryDx=0;entryDy=0;dashed=1;" parent="1" source="UPinhEmfIHB1rPUh6o73-56" target="UPinhEmfIHB1rPUh6o73-45" edge="1">
          <mxGeometry relative="1" as="geometry"/>
        </mxCell>
        <mxCell id="UPinhEmfIHB1rPUh6o73-56" value="LoginManager" style="rounded=1;whiteSpace=wrap;html=1;" parent="1" vertex="1">
          <mxGeometry y="130" width="110" height="40" as="geometry"/>
        </mxCell>
        <mxCell id="UPinhEmfIHB1rPUh6o73-62" style="edgeStyle=orthogonalEdgeStyle;rounded=0;jumpStyle=arc;orthogonalLoop=1;jettySize=auto;html=1;entryX=0;entryY=0.5;entryDx=0;entryDy=0;dashed=1;" parent="1" source="UPinhEmfIHB1rPUh6o73-57" target="UPinhEmfIHB1rPUh6o73-45" edge="1">
          <mxGeometry relative="1" as="geometry"/>
        </mxCell>
        <mxCell id="UPinhEmfIHB1rPUh6o73-57" value="SignUpManager" style="rounded=1;whiteSpace=wrap;html=1;" parent="1" vertex="1">
          <mxGeometry y="190" width="110" height="40" as="geometry"/>
        </mxCell>
        <mxCell id="UPinhEmfIHB1rPUh6o73-63" style="edgeStyle=orthogonalEdgeStyle;rounded=0;jumpStyle=arc;orthogonalLoop=1;jettySize=auto;html=1;entryX=0;entryY=0.5;entryDx=0;entryDy=0;dashed=1;" parent="1" source="UPinhEmfIHB1rPUh6o73-58" target="UPinhEmfIHB1rPUh6o73-45" edge="1">
          <mxGeometry relative="1" as="geometry"/>
        </mxCell>
        <mxCell id="UPinhEmfIHB1rPUh6o73-58" value="ReportReceiver" style="rounded=1;whiteSpace=wrap;html=1;" parent="1" vertex="1">
          <mxGeometry y="250" width="110" height="40" as="geometry"/>
        </mxCell>
        <mxCell id="UPinhEmfIHB1rPUh6o73-65" style="edgeStyle=orthogonalEdgeStyle;rounded=0;jumpStyle=arc;orthogonalLoop=1;jettySize=auto;html=1;entryX=0;entryY=0.5;entryDx=0;entryDy=0;dashed=1;" parent="1" source="UPinhEmfIHB1rPUh6o73-59" target="UPinhEmfIHB1rPUh6o73-45" edge="1">
          <mxGeometry relative="1" as="geometry"/>
        </mxCell>
        <mxCell id="UPinhEmfIHB1rPUh6o73-59" value="ReportValidator" style="rounded=1;whiteSpace=wrap;html=1;" parent="1" vertex="1">
          <mxGeometry y="310" width="110" height="40" as="geometry"/>
        </mxCell>
        <mxCell id="UPinhEmfIHB1rPUh6o73-67" style="edgeStyle=orthogonalEdgeStyle;rounded=0;jumpStyle=arc;orthogonalLoop=1;jettySize=auto;html=1;entryX=0;entryY=0.5;entryDx=0;entryDy=0;dashed=1;" parent="1" source="UPinhEmfIHB1rPUh6o73-60" target="UPinhEmfIHB1rPUh6o73-45" edge="1">
          <mxGeometry relative="1" as="geometry"/>
        </mxCell>
        <mxCell id="UPinhEmfIHB1rPUh6o73-60" value="Improvements&lt;br&gt;Manager" style="rounded=1;whiteSpace=wrap;html=1;" parent="1" vertex="1">
          <mxGeometry y="430" width="110" height="40" as="geometry"/>
        </mxCell>
        <mxCell id="UPinhEmfIHB1rPUh6o73-70" style="edgeStyle=orthogonalEdgeStyle;rounded=0;jumpStyle=arc;orthogonalLoop=1;jettySize=auto;html=1;dashed=1;" parent="1" source="UPinhEmfIHB1rPUh6o73-68" target="UPinhEmfIHB1rPUh6o73-46" edge="1">
          <mxGeometry relative="1" as="geometry"/>
        </mxCell>
        <mxCell id="UPinhEmfIHB1rPUh6o73-68" value="ReportValidator" style="rounded=1;whiteSpace=wrap;html=1;" parent="1" vertex="1">
          <mxGeometry x="2" y="510" width="110" height="40" as="geometry"/>
        </mxCell>
        <mxCell id="UPinhEmfIHB1rPUh6o73-71" style="edgeStyle=orthogonalEdgeStyle;rounded=0;jumpStyle=arc;orthogonalLoop=1;jettySize=auto;html=1;entryX=0;entryY=0.5;entryDx=0;entryDy=0;dashed=1;" parent="1" source="UPinhEmfIHB1rPUh6o73-69" target="UPinhEmfIHB1rPUh6o73-46" edge="1">
          <mxGeometry relative="1" as="geometry"/>
        </mxCell>
        <mxCell id="UPinhEmfIHB1rPUh6o73-69" value="Statistics&lt;br&gt;Computation&lt;br&gt;Manager" style="rounded=1;whiteSpace=wrap;html=1;" parent="1" vertex="1">
          <mxGeometry x="2" y="580" width="110" height="50" as="geometry"/>
        </mxCell>
        <mxCell id="UPinhEmfIHB1rPUh6o73-73" style="edgeStyle=orthogonalEdgeStyle;rounded=0;jumpStyle=arc;orthogonalLoop=1;jettySize=auto;html=1;dashed=1;" parent="1" source="UPinhEmfIHB1rPUh6o73-72" target="UPinhEmfIHB1rPUh6o73-43" edge="1">
          <mxGeometry relative="1" as="geometry"/>
        </mxCell>
        <mxCell id="UPinhEmfIHB1rPUh6o73-72" value="Improvements&lt;br&gt;Manager" style="rounded=1;whiteSpace=wrap;html=1;" parent="1" vertex="1">
          <mxGeometry y="700" width="110" height="40" as="geometry"/>
        </mxCell>
        <mxCell id="UPinhEmfIHB1rPUh6o73-75" value="" style="edgeStyle=orthogonalEdgeStyle;rounded=0;orthogonalLoop=1;jettySize=auto;html=1;dashed=1;" parent="1" source="UPinhEmfIHB1rPUh6o73-77" target="UPinhEmfIHB1rPUh6o73-78" edge="1">
          <mxGeometry relative="1" as="geometry"/>
        </mxCell>
        <mxCell id="UPinhEmfIHB1rPUh6o73-76" style="edgeStyle=orthogonalEdgeStyle;rounded=0;orthogonalLoop=1;jettySize=auto;html=1;entryX=0;entryY=0.5;entryDx=0;entryDy=0;dashed=1;" parent="1" source="UPinhEmfIHB1rPUh6o73-77" target="UPinhEmfIHB1rPUh6o73-79" edge="1">
          <mxGeometry relative="1" as="geometry"/>
        </mxCell>
        <mxCell id="UPinhEmfIHB1rPUh6o73-77" value="ReportReceiver" style="rounded=1;whiteSpace=wrap;html=1;" parent="1" vertex="1">
          <mxGeometry x="-0.5" y="30" width="110" height="40" as="geometry"/>
        </mxCell>
        <mxCell id="UPinhEmfIHB1rPUh6o73-78" value="OCRS" style="rounded=1;whiteSpace=wrap;html=1;fillColor=#f8cecc;strokeColor=#b85450;" parent="1" vertex="1">
          <mxGeometry x="175" width="110" height="40" as="geometry"/>
        </mxCell>
        <mxCell id="UPinhEmfIHB1rPUh6o73-79" value="MS" style="rounded=1;whiteSpace=wrap;html=1;fillColor=#f8cecc;strokeColor=#b85450;" parent="1" vertex="1">
          <mxGeometry x="175" y="60" width="110" height="40" as="geometry"/>
        </mxCell>
      </root>
    </mxGraphModel>
  </diagram>
</mxfile>
